<svg xmlns="http://www.w3.org/2000/svg" viewBox="0 0 448.26 177.41"><defs><style>.cls-1{fill:#05034a;}</style></defs><g id="Layer_2" data-name="Layer 2"><g id="april6"><path id="_6" data-name="6" class="cls-1" d="M440.9,117a49.17,49.17,0,0,1-68.12,15.38A49.87,49.87,0,0,1,357,64.71L398.73,0l35.19.08L407.07,41.89c26.76,5.25,45.53,31.56,40.32,58.5a50.17,50.17,0,0,1-6.49,16.66Z"/><rect id="l" class="cls-1" x="310.17" width="29.4" height="137.84"/><g id="i"><path id="idot" class="cls-1" d="M283.47,0a16.73,16.73,0,1,1-16.74,16.73A16.73,16.73,0,0,1,283.47,0"/><rect id="ii" class="cls-1" x="268.77" y="42.44" width="29.39" height="95.4"/></g><path id="r" class="cls-1" d="M199.13,42.44h27.63V53h.35a24.41,24.41,0,0,1,20.94-10.39A50.1,50.1,0,0,1,259.49,44l-4,27.46a45.29,45.29,0,0,0-9.5-.88c-11.44,0-17.43,7-17.43,20.94v46.29H199.13Z"/><path id="p" class="cls-1" d="M141.78,110a18.46,18.46,0,1,1,18.45-18.45A18.45,18.45,0,0,1,141.78,110m0-67.05a48.32,48.32,0,0,0-22.4,5.47V42.65H91.62V177.41H121l-.41-42.09A48.6,48.6,0,1,0,141.78,43"/><path id="a" class="cls-1" d="M.53,112c0-15,9.5-23.58,32-29C48.4,79.23,53,76.59,53,72c0-4.76-4-7.4-11.44-7.4-8.63,0-13.91,4.94-15.49,14.26L0,73.42c2.82-18.83,19.89-32,41.54-32,24.28,0,39.95,14.26,39.95,36.08v60.37H56V130.1h-.35C51.76,136.6,43,140.48,32,140.48,12.5,140.48.53,129.56.53,112m53-6.34V94.19h-.35c-1.06,2.47-4,4.23-11.79,6.69-9.69,2.82-13,5.28-13,9.5,0,4.4,3.17,6.87,9.51,6.87,8.62,0,15.65-5.28,15.65-11.62Z"/></g></g></svg>